<?xml version="1.0" encoding="UTF-8" standalone="no"?>
<!DOCTYPE svg PUBLIC "-//W3C//DTD SVG 1.1//EN" "http://www.w3.org/Graphics/SVG/1.1/DTD/svg11.dtd">
<svg width="100%" height="100%" viewBox="0 0 650 350" version="1.1" xmlns="http://www.w3.org/2000/svg" xmlns:xlink="http://www.w3.org/1999/xlink" xml:space="preserve" xmlns:serif="http://www.serif.com/" style="fill-rule:evenodd;clip-rule:evenodd;">
    <g id="graph0" transform="matrix(1,0,0,1,46,373)">
        <g transform="matrix(1.14841,0,0,0.866337,-41.4064,-26.4653)">
            <rect x="-4" y="-400" width="566" height="404" style="fill:white;fill-rule:nonzero;"/>
        </g>
        <g transform="matrix(1,0,0,1,22.5,38.25)">
            <path d="M42,-180L12,-180C6,-180 0,-174 0,-168L0,-156C0,-150 6,-144 12,-144L42,-144C48,-144 54,-150 54,-156L54,-168C54,-174 48,-180 42,-180" style="fill:none;fill-rule:nonzero;stroke:rgb(87,0,199);stroke-width:2px;"/>
            <g transform="matrix(0.666667,0,0,1,-61,67.5)">
                <path d="M42,-180L12,-180C6,-180 0,-174 0,-168L0,-156C0,-150 6,-144 12,-144L42,-144C48,-144 54,-150 54,-156L54,-168C54,-174 48,-180 42,-180" style="fill:none;fill-rule:nonzero;stroke:rgb(87,0,199);stroke-width:2px;"/>
            </g>
            <g transform="matrix(0.666667,0,0,1,-11,67.5)">
                <path d="M42,-180L12,-180C6,-180 0,-174 0,-168L0,-156C0,-150 6,-144 12,-144L42,-144C48,-144 54,-150 54,-156L54,-168C54,-174 48,-180 42,-180" style="fill:none;fill-rule:nonzero;stroke:rgb(87,0,199);stroke-width:2px;"/>
            </g>
            <g transform="matrix(0.666667,0,0,1,40,67.5)">
                <path d="M42,-180L12,-180C6,-180 0,-174 0,-168L0,-156C0,-150 6,-144 12,-144L42,-144C48,-144 54,-150 54,-156L54,-168C54,-174 48,-180 42,-180" style="fill:none;fill-rule:nonzero;stroke:rgb(87,0,199);stroke-width:2px;"/>
            </g>
            <g transform="matrix(0.666667,0,0,1,91,67.5)">
                <path d="M42,-180L12,-180C6,-180 0,-174 0,-168L0,-156C0,-150 6,-144 12,-144L42,-144C48,-144 54,-150 54,-156L54,-168C54,-174 48,-180 42,-180" style="fill:none;fill-rule:nonzero;stroke:rgb(87,0,199);stroke-width:2px;"/>
            </g>
            <g transform="matrix(0.666667,0,0,1,179,67.5)">
                <path d="M42,-180L12,-180C6,-180 0,-174 0,-168L0,-156C0,-150 6,-144 12,-144L42,-144C48,-144 54,-150 54,-156L54,-168C54,-174 48,-180 42,-180" style="fill:none;fill-rule:nonzero;stroke:rgb(87,0,199);stroke-width:2px;"/>
            </g>
            <g transform="matrix(0.666667,0,0,1,135,67.5)">
                <path d="M42,-180L12,-180C6,-180 0,-174 0,-168L0,-156C0,-150 6,-144 12,-144L42,-144C48,-144 54,-150 54,-156L54,-168C54,-174 48,-180 42,-180" style="fill:none;fill-rule:nonzero;stroke:rgb(87,0,199);stroke-width:2px;"/>
            </g>
            <g>
                <g transform="matrix(0.666667,0,0,1,225,67.5)">
                    <path d="M42,-180L12,-180C6,-180 0,-174 0,-168L0,-156C0,-150 6,-144 12,-144L42,-144C48,-144 54,-150 54,-156L54,-168C54,-174 48,-180 42,-180" style="fill:none;fill-rule:nonzero;stroke:rgb(87,0,199);stroke-width:2px;"/>
                </g>
                <g transform="matrix(1,0,0,1,243,-90.7964)">
                    <text x="-9.998px" y="0px" style="font-family:'LucidaGrande', 'Lucida Grande', sans-serif;font-weight:500;font-size:10px;">H21</text>
                </g>
            </g>
            <g transform="matrix(1,0,0,1,8.5,0)">
                <g transform="matrix(0.666667,0,0,1,272,67.5)">
                    <path d="M42,-180L12,-180C6,-180 0,-174 0,-168L0,-156C0,-150 6,-144 12,-144L42,-144C48,-144 54,-150 54,-156L54,-168C54,-174 48,-180 42,-180" style="fill:none;fill-rule:nonzero;stroke:rgb(87,0,199);stroke-width:2px;"/>
                </g>
                <g transform="matrix(0.666667,0,0,1,322,67.5)">
                    <path d="M42,-180L12,-180C6,-180 0,-174 0,-168L0,-156C0,-150 6,-144 12,-144L42,-144C48,-144 54,-150 54,-156L54,-168C54,-174 48,-180 42,-180" style="fill:none;fill-rule:nonzero;stroke:rgb(87,0,199);stroke-width:2px;"/>
                </g>
                <g transform="matrix(1,0,0,1,340.081,-90.8867)">
                    <text x="-9.998px" y="0px" style="font-family:'LucidaGrande', 'Lucida Grande', sans-serif;font-weight:500;font-size:10px;">H23</text>
                </g>
                <g transform="matrix(1,0,0,1,290.112,-90.7964)">
                    <text x="-9.998px" y="0px" style="font-family:'LucidaGrande', 'Lucida Grande', sans-serif;font-weight:500;font-size:10px;">H22</text>
                </g>
            </g>
            <g>
                <g transform="matrix(0.666667,0,0,1,488,67.5)">
                    <path d="M42,-180L12,-180C6,-180 0,-174 0,-168L0,-156C0,-150 6,-144 12,-144L42,-144C48,-144 54,-150 54,-156L54,-168C54,-174 48,-180 42,-180" style="fill:none;fill-rule:nonzero;stroke:rgb(87,0,199);stroke-width:2px;"/>
                </g>
                <g transform="matrix(0.666667,0,0,1,538,67.5)">
                    <path d="M42,-180L12,-180C6,-180 0,-174 0,-168L0,-156C0,-150 6,-144 12,-144L42,-144C48,-144 54,-150 54,-156L54,-168C54,-174 48,-180 42,-180" style="fill:none;fill-rule:nonzero;stroke:rgb(87,0,199);stroke-width:2px;"/>
                </g>
                <g transform="matrix(1,0,0,1,555.834,-90.7964)">
                    <text x="-9.998px" y="0px" style="font-family:'LucidaGrande', 'Lucida Grande', sans-serif;font-weight:500;font-size:10px;">H27</text>
                </g>
                <g transform="matrix(1,0,0,1,505.893,-90.8843)">
                    <text x="-9.998px" y="0px" style="font-family:'LucidaGrande', 'Lucida Grande', sans-serif;font-weight:500;font-size:10px;">H26</text>
                </g>
            </g>
            <g>
                <g transform="matrix(0.666667,0,0,1,386,67.5)">
                    <path d="M42,-180L12,-180C6,-180 0,-174 0,-168L0,-156C0,-150 6,-144 12,-144L42,-144C48,-144 54,-150 54,-156L54,-168C54,-174 48,-180 42,-180" style="fill:none;fill-rule:nonzero;stroke:rgb(87,0,199);stroke-width:2px;"/>
                </g>
                <g transform="matrix(1,0,0,1,403.878,-90.7964)">
                    <text x="-9.998px" y="0px" style="font-family:'LucidaGrande', 'Lucida Grande', sans-serif;font-weight:500;font-size:10px;">H24</text>
                </g>
            </g>
            <g transform="matrix(0.666667,0,0,1,441,67.5)">
                <path d="M42,-180L12,-180C6,-180 0,-174 0,-168L0,-156C0,-150 6,-144 12,-144L42,-144C48,-144 54,-150 54,-156L54,-168C54,-174 48,-180 42,-180" style="fill:none;fill-rule:nonzero;stroke:rgb(87,0,199);stroke-width:2px;"/>
            </g>
            <g transform="matrix(1,0,0,1,27,-158.12)">
                <text x="-9.998px" y="0px" style="font-family:'LucidaGrande', 'Lucida Grande', sans-serif;font-weight:500;font-size:10px;">H07</text>
            </g>
            <path d="M60,-252L30,-252C24,-252 18,-246 18,-240L18,-228C18,-222 24,-216 30,-216L60,-216C66,-216 72,-222 72,-228L72,-240C72,-246 66,-252 60,-252" style="fill:none;fill-rule:nonzero;stroke:rgb(87,0,199);stroke-width:2px;"/>
            <g transform="matrix(1,0,0,1,45,-230.12)">
                <text x="-9.998px" y="0px" style="font-family:'LucidaGrande', 'Lucida Grande', sans-serif;font-weight:500;font-size:10px;">H04</text>
            </g>
            <g id="edge10">
                <path d="M40.46,-215.34C38.74,-208.67 36.74,-200.89 34.81,-193.39" style="fill:none;fill-rule:nonzero;stroke:rgb(128,128,128);stroke-width:2px;"/>
                <path d="M38.24,-192.65L32.36,-183.83L31.46,-194.39L38.24,-192.65Z" style="fill:rgb(128,128,128);fill-rule:nonzero;stroke:rgb(128,128,128);stroke-width:2px;"/>
            </g>
            <g id="edge101" serif:id="edge10" transform="matrix(-0.920343,0,0,0.920343,431.056,54.1866)">
                <path d="M40.46,-215.34C38.74,-208.67 36.74,-200.89 34.81,-193.39" style="fill:none;fill-rule:nonzero;stroke:rgb(128,128,128);stroke-width:2px;"/>
                <path d="M38.24,-192.65L32.36,-183.83L31.46,-194.39L38.24,-192.65Z" style="fill:rgb(128,128,128);fill-rule:nonzero;stroke:rgb(128,128,128);stroke-width:2px;"/>
            </g>
            <g id="edge102" serif:id="edge10" transform="matrix(0.920343,0,0,0.920343,126.864,55.1016)">
                <path d="M40.46,-215.34C38.74,-208.67 36.74,-200.89 34.81,-193.39" style="fill:none;fill-rule:nonzero;stroke:rgb(128,128,128);stroke-width:2px;"/>
                <path d="M38.24,-192.65L32.36,-183.83L31.46,-194.39L38.24,-192.65Z" style="fill:rgb(128,128,128);fill-rule:nonzero;stroke:rgb(128,128,128);stroke-width:2px;"/>
            </g>
            <g id="edge103" serif:id="edge10" transform="matrix(0.888607,0,0,0.888607,-14.9943,48.7676)">
                <path d="M40.46,-215.34C38.74,-208.67 36.74,-200.89 34.81,-193.39" style="fill:none;fill-rule:nonzero;stroke:rgb(128,128,128);stroke-width:2px;"/>
                <path d="M38.24,-192.65L32.36,-183.83L31.46,-194.39L38.24,-192.65Z" style="fill:rgb(128,128,128);fill-rule:nonzero;stroke:rgb(128,128,128);stroke-width:2px;"/>
            </g>
            <path d="M168,-324L138,-324C132,-324 126,-318 126,-312L126,-300C126,-294 132,-288 138,-288L168,-288C174,-288 180,-294 180,-300L180,-312C180,-318 174,-324 168,-324" style="fill:none;fill-rule:nonzero;stroke:rgb(87,0,199);stroke-width:2px;"/>
            <g transform="matrix(1,0,0,1,153,-302.12)">
                <text x="-9.998px" y="0px" style="font-family:'LucidaGrande', 'Lucida Grande', sans-serif;font-weight:500;font-size:10px;">H01</text>
            </g>
            <g id="edge11">
                <path d="M125.47,-287.15C112.65,-278.84 97.18,-268.82 83.25,-259.79" style="fill:none;fill-rule:nonzero;stroke:rgb(128,128,128);stroke-width:2px;"/>
                <path d="M85.32,-256.96L75.02,-254.46L81.51,-262.83L85.32,-256.96Z" style="fill:rgb(128,128,128);fill-rule:nonzero;stroke:rgb(128,128,128);stroke-width:2px;"/>
            </g>
            <path d="M168,-252L138,-252C132,-252 126,-246 126,-240L126,-228C126,-222 132,-216 138,-216L168,-216C174,-216 180,-222 180,-228L180,-240C180,-246 174,-252 168,-252" style="fill:none;fill-rule:nonzero;stroke:rgb(87,0,199);stroke-width:2px;"/>
            <g transform="matrix(1,0,0,1,153,-230.12)">
                <text x="-9.998px" y="0px" style="font-family:'LucidaGrande', 'Lucida Grande', sans-serif;font-weight:500;font-size:10px;">H05</text>
            </g>
            <g id="edge14">
                <path d="M153,-287.34L153,-265.67" style="fill:none;fill-rule:nonzero;stroke:rgb(128,128,128);stroke-width:2px;"/>
                <path d="M156.5,-265.93L153,-255.93L149.5,-265.93L156.5,-265.93Z" style="fill:rgb(128,128,128);fill-rule:nonzero;stroke:rgb(128,128,128);stroke-width:2px;"/>
            </g>
            <path d="M330,-396L300,-396C294,-396 288,-390 288,-384L288,-372C288,-366 294,-360 300,-360L330,-360C336,-360 342,-366 342,-372L342,-384C342,-390 336,-396 330,-396" style="fill:none;fill-rule:nonzero;stroke:rgb(87,0,199);stroke-width:2px;"/>
            <g transform="matrix(1,0,0,1,315,-374.12)">
                <text x="-9.998px" y="0px" style="font-family:'LucidaGrande', 'Lucida Grande', sans-serif;font-weight:500;font-size:10px;">H00</text>
            </g>
            <g id="edge12">
                <path d="M287.15,-364.97C261.11,-353.71 221.94,-336.79 192.64,-324.13" style="fill:none;fill-rule:nonzero;stroke:rgb(128,128,128);stroke-width:2px;"/>
                <path d="M194.1,-320.95L183.53,-320.19L191.33,-327.37L194.1,-320.95Z" style="fill:rgb(128,128,128);fill-rule:nonzero;stroke:rgb(128,128,128);stroke-width:2px;"/>
            </g>
            <path d="M330,-252L300,-252C294,-252 288,-246 288,-240L288,-228C288,-222 294,-216 300,-216L330,-216C336,-216 342,-222 342,-228L342,-240C342,-246 336,-252 330,-252" style="fill:none;fill-rule:nonzero;stroke:rgb(87,0,199);stroke-width:2px;"/>
            <g transform="matrix(1,0,0,1,315,-230.12)">
                <text x="-9.998px" y="0px" style="font-family:'LucidaGrande', 'Lucida Grande', sans-serif;font-weight:500;font-size:10px;">H02</text>
            </g>
            <g id="edge17">
                <path d="M315,-359.02L315,-265.64" style="fill:none;fill-rule:nonzero;stroke:rgb(128,128,128);stroke-width:2px;"/>
                <path d="M318.5,-265.87L315,-255.87L311.5,-265.87L318.5,-265.87Z" style="fill:rgb(128,128,128);fill-rule:nonzero;stroke:rgb(128,128,128);stroke-width:2px;"/>
            </g>
            <path d="M429,-324L399,-324C393,-324 387,-318 387,-312L387,-300C387,-294 393,-288 399,-288L429,-288C435,-288 441,-294 441,-300L441,-312C441,-318 435,-324 429,-324" style="fill:none;fill-rule:nonzero;stroke:rgb(87,0,199);stroke-width:2px;"/>
            <g transform="matrix(1,0,0,1,414,-302.12)">
                <text x="-9.998px" y="0px" style="font-family:'LucidaGrande', 'Lucida Grande', sans-serif;font-weight:500;font-size:10px;">H03</text>
            </g>
            <g id="edge22">
                <path d="M340.24,-359.15C351.76,-351.01 365.61,-341.22 378.18,-332.33" style="fill:none;fill-rule:nonzero;stroke:rgb(128,128,128);stroke-width:2px;"/>
                <path d="M380.19,-335.19L386.34,-326.56L376.15,-329.48L380.19,-335.19Z" style="fill:rgb(128,128,128);fill-rule:nonzero;stroke:rgb(128,128,128);stroke-width:2px;"/>
            </g>
            <path d="M114,-180L84,-180C78,-180 72,-174 72,-168L72,-156C72,-150 78,-144 84,-144L114,-144C120,-144 126,-150 126,-156L126,-168C126,-174 120,-180 114,-180" style="fill:none;fill-rule:nonzero;stroke:rgb(87,0,199);stroke-width:2px;"/>
            <g transform="matrix(1,0,0,1,99,-158.12)">
                <text x="-9.998px" y="0px" style="font-family:'LucidaGrande', 'Lucida Grande', sans-serif;font-weight:500;font-size:10px;">H08</text>
            </g>
            <g id="edge13">
                <path d="M139.37,-215.34C133.73,-208.01 127.03,-199.34 120.74,-191.18" style="fill:none;fill-rule:nonzero;stroke:rgb(128,128,128);stroke-width:2px;"/>
                <path d="M123.54,-189.08L114.66,-183.3L118,-193.35L123.54,-189.08Z" style="fill:rgb(128,128,128);fill-rule:nonzero;stroke:rgb(128,128,128);stroke-width:2px;"/>
            </g>
            <g id="edge131" serif:id="edge13" transform="matrix(0.930087,0,0,0.930087,-49.9838,55.185)">
                <path d="M139.37,-215.34C133.73,-208.01 127.03,-199.34 120.74,-191.18" style="fill:none;fill-rule:nonzero;stroke:rgb(128,128,128);stroke-width:2px;"/>
                <path d="M123.54,-189.08L114.66,-183.3L118,-193.35L123.54,-189.08Z" style="fill:rgb(128,128,128);fill-rule:nonzero;stroke:rgb(128,128,128);stroke-width:2px;"/>
            </g>
            <g id="edge132" serif:id="edge13" transform="matrix(0.905119,0,0,0.905119,402.188,51.6082)">
                <path d="M139.37,-215.34C133.73,-208.01 127.03,-199.34 120.74,-191.18" style="fill:none;fill-rule:nonzero;stroke:rgb(128,128,128);stroke-width:2px;"/>
                <path d="M123.54,-189.08L114.66,-183.3L118,-193.35L123.54,-189.08Z" style="fill:rgb(128,128,128);fill-rule:nonzero;stroke:rgb(128,128,128);stroke-width:2px;"/>
            </g>
            <path d="M186,-180L156,-180C150,-180 144,-174 144,-168L144,-156C144,-150 150,-144 156,-144L186,-144C192,-144 198,-150 198,-156L198,-168C198,-174 192,-180 186,-180" style="fill:none;fill-rule:nonzero;stroke:rgb(87,0,199);stroke-width:2px;"/>
            <g transform="matrix(1,0,0,1,171,-158.12)">
                <text x="-9.998px" y="0px" style="font-family:'LucidaGrande', 'Lucida Grande', sans-serif;font-weight:500;font-size:10px;">H09</text>
            </g>
            <g id="edge15">
                <path d="M157.54,-215.34C159.26,-208.67 161.26,-200.89 163.19,-193.39" style="fill:none;fill-rule:nonzero;stroke:rgb(128,128,128);stroke-width:2px;"/>
                <path d="M166.54,-194.39L165.64,-183.83L159.76,-192.65L166.54,-194.39Z" style="fill:rgb(128,128,128);fill-rule:nonzero;stroke:rgb(128,128,128);stroke-width:2px;"/>
            </g>
            <g id="edge133" serif:id="edge13" transform="matrix(-0.905119,0,0,0.905119,452.149,51.5682)">
                <path d="M139.37,-215.34C133.73,-208.01 127.03,-199.34 120.74,-191.18" style="fill:none;fill-rule:nonzero;stroke:rgb(128,128,128);stroke-width:2px;"/>
                <path d="M123.54,-189.08L114.66,-183.3L118,-193.35L123.54,-189.08Z" style="fill:rgb(128,128,128);fill-rule:nonzero;stroke:rgb(128,128,128);stroke-width:2px;"/>
            </g>
            <g id="edge151" serif:id="edge15" transform="matrix(-0.920343,0,0,0.920343,451.292,54.8466)">
                <path d="M157.54,-215.34C159.26,-208.67 161.26,-200.89 163.19,-193.39" style="fill:none;fill-rule:nonzero;stroke:rgb(128,128,128);stroke-width:2px;"/>
                <path d="M166.54,-194.39L165.64,-183.83L159.76,-192.65L166.54,-194.39Z" style="fill:rgb(128,128,128);fill-rule:nonzero;stroke:rgb(128,128,128);stroke-width:2px;"/>
            </g>
            <g id="edge152" serif:id="edge15" transform="matrix(0.920343,0,0,0.920343,398.094,54.8866)">
                <path d="M157.54,-215.34C159.26,-208.67 161.26,-200.89 163.19,-193.39" style="fill:none;fill-rule:nonzero;stroke:rgb(128,128,128);stroke-width:2px;"/>
                <path d="M166.54,-194.39L165.64,-183.83L159.76,-192.65L166.54,-194.39Z" style="fill:rgb(128,128,128);fill-rule:nonzero;stroke:rgb(128,128,128);stroke-width:2px;"/>
            </g>
            <g id="edge153" serif:id="edge15" transform="matrix(0.920343,0,0,0.920343,41.9077,55.1016)">
                <path d="M157.54,-215.34C159.26,-208.67 161.26,-200.89 163.19,-193.39" style="fill:none;fill-rule:nonzero;stroke:rgb(128,128,128);stroke-width:2px;"/>
                <path d="M166.54,-194.39L165.64,-183.83L159.76,-192.65L166.54,-194.39Z" style="fill:rgb(128,128,128);fill-rule:nonzero;stroke:rgb(128,128,128);stroke-width:2px;"/>
            </g>
            <path d="M258,-180L228,-180C222,-180 216,-174 216,-168L216,-156C216,-150 222,-144 228,-144L258,-144C264,-144 270,-150 270,-156L270,-168C270,-174 264,-180 258,-180" style="fill:none;fill-rule:nonzero;stroke:rgb(87,0,199);stroke-width:2px;"/>
            <g transform="matrix(1,0,0,1,243,-158.12)">
                <text x="-9.998px" y="0px" style="font-family:'LucidaGrande', 'Lucida Grande', sans-serif;font-weight:500;font-size:10px;">H10</text>
            </g>
            <g id="edge16">
                <path d="M296.83,-215.34C288.88,-207.6 279.37,-198.36 270.57,-189.81" style="fill:none;fill-rule:nonzero;stroke:rgb(128,128,128);stroke-width:2px;"/>
                <path d="M273.19,-187.47L263.58,-183.01L268.31,-192.49L273.19,-187.47Z" style="fill:rgb(128,128,128);fill-rule:nonzero;stroke:rgb(128,128,128);stroke-width:2px;"/>
            </g>
            <g id="edge161" serif:id="edge16" transform="matrix(1,0,0,1,-294,68)">
                <path d="M296.83,-215.34C288.88,-207.6 279.37,-198.36 270.57,-189.81" style="fill:none;fill-rule:nonzero;stroke:rgb(128,128,128);stroke-width:2px;"/>
                <path d="M273.19,-187.47L263.58,-183.01L268.31,-192.49L273.19,-187.47Z" style="fill:rgb(128,128,128);fill-rule:nonzero;stroke:rgb(128,128,128);stroke-width:2px;"/>
            </g>
            <path d="M330,-180L300,-180C294,-180 288,-174 288,-168L288,-156C288,-150 294,-144 300,-144L330,-144C336,-144 342,-150 342,-156L342,-168C342,-174 336,-180 330,-180" style="fill:none;fill-rule:nonzero;stroke:rgb(87,0,199);stroke-width:2px;"/>
            <g transform="matrix(1,0,0,1,315,-158.12)">
                <text x="-9.998px" y="0px" style="font-family:'LucidaGrande', 'Lucida Grande', sans-serif;font-weight:500;font-size:10px;">H11</text>
            </g>
            <g id="edge18">
                <path d="M315,-215.34L315,-193.67" style="fill:none;fill-rule:nonzero;stroke:rgb(128,128,128);stroke-width:2px;"/>
                <path d="M318.5,-193.93L315,-183.93L311.5,-193.93L318.5,-193.93Z" style="fill:rgb(128,128,128);fill-rule:nonzero;stroke:rgb(128,128,128);stroke-width:2px;"/>
            </g>
            <g id="edge181" serif:id="edge18" transform="matrix(0.923273,0,0,0.923273,-48.8309,55.0226)">
                <path d="M315,-215.34L315,-193.67" style="fill:none;fill-rule:nonzero;stroke:rgb(128,128,128);stroke-width:2px;"/>
                <path d="M318.5,-193.93L315,-183.93L311.5,-193.93L318.5,-193.93Z" style="fill:rgb(128,128,128);fill-rule:nonzero;stroke:rgb(128,128,128);stroke-width:2px;"/>
            </g>
            <g id="edge182" serif:id="edge18" transform="matrix(0.923273,0,0,0.923273,167.169,54.8176)">
                <path d="M315,-215.34L315,-193.67" style="fill:none;fill-rule:nonzero;stroke:rgb(128,128,128);stroke-width:2px;"/>
                <path d="M318.5,-193.93L315,-183.93L311.5,-193.93L318.5,-193.93Z" style="fill:rgb(128,128,128);fill-rule:nonzero;stroke:rgb(128,128,128);stroke-width:2px;"/>
            </g>
            <path d="M402,-180L372,-180C366,-180 360,-174 360,-168L360,-156C360,-150 366,-144 372,-144L402,-144C408,-144 414,-150 414,-156L414,-168C414,-174 408,-180 402,-180" style="fill:none;fill-rule:nonzero;stroke:rgb(87,0,199);stroke-width:2px;"/>
            <g transform="matrix(1,0,0,1,387,-158.12)">
                <text x="-9.998px" y="0px" style="font-family:'LucidaGrande', 'Lucida Grande', sans-serif;font-weight:500;font-size:10px;">H12</text>
            </g>
            <g id="edge19">
                <path d="M333.17,-215.34C341.12,-207.6 350.63,-198.36 359.43,-189.81" style="fill:none;fill-rule:nonzero;stroke:rgb(128,128,128);stroke-width:2px;"/>
                <path d="M361.69,-192.49L366.42,-183.01L356.81,-187.47L361.69,-192.49Z" style="fill:rgb(128,128,128);fill-rule:nonzero;stroke:rgb(128,128,128);stroke-width:2px;"/>
            </g>
            <g id="edge162" serif:id="edge16" transform="matrix(1,0,0,1,-149,68)">
                <path d="M296.83,-215.34C288.88,-207.6 279.37,-198.36 270.57,-189.81" style="fill:none;fill-rule:nonzero;stroke:rgb(128,128,128);stroke-width:2px;"/>
                <path d="M273.19,-187.47L263.58,-183.01L268.31,-192.49L273.19,-187.47Z" style="fill:rgb(128,128,128);fill-rule:nonzero;stroke:rgb(128,128,128);stroke-width:2px;"/>
            </g>
            <path d="M474,-180L444,-180C438,-180 432,-174 432,-168L432,-156C432,-150 438,-144 444,-144L474,-144C480,-144 486,-150 486,-156L486,-168C486,-174 480,-180 474,-180" style="fill:none;fill-rule:nonzero;stroke:rgb(87,0,199);stroke-width:2px;"/>
            <g transform="matrix(1,0,0,1,459,-158.12)">
                <text x="-9.998px" y="0px" style="font-family:'LucidaGrande', 'Lucida Grande', sans-serif;font-weight:500;font-size:10px;">H13</text>
            </g>
            <path d="M474,-252L444,-252C438,-252 432,-246 432,-240L432,-228C432,-222 438,-216 444,-216L474,-216C480,-216 486,-222 486,-228L486,-240C486,-246 480,-252 474,-252" style="fill:none;fill-rule:nonzero;stroke:rgb(87,0,199);stroke-width:2px;"/>
            <g transform="matrix(1,0,0,1,459,-230.12)">
                <text x="-9.998px" y="0px" style="font-family:'LucidaGrande', 'Lucida Grande', sans-serif;font-weight:500;font-size:10px;">H06</text>
            </g>
            <g id="edge20">
                <path d="M459,-215.34L459,-193.67" style="fill:none;fill-rule:nonzero;stroke:rgb(128,128,128);stroke-width:2px;"/>
                <path d="M462.5,-193.93L459,-183.93L455.5,-193.93L462.5,-193.93Z" style="fill:rgb(128,128,128);fill-rule:nonzero;stroke:rgb(128,128,128);stroke-width:2px;"/>
            </g>
            <path d="M546,-180L516,-180C510,-180 504,-174 504,-168L504,-156C504,-150 510,-144 516,-144L546,-144C552,-144 558,-150 558,-156L558,-168C558,-174 552,-180 546,-180" style="fill:none;fill-rule:nonzero;stroke:rgb(87,0,199);stroke-width:2px;"/>
            <g transform="matrix(1,0,0,1,531,-158.12)">
                <text x="-9.998px" y="0px" style="font-family:'LucidaGrande', 'Lucida Grande', sans-serif;font-weight:500;font-size:10px;">H14</text>
            </g>
            <g transform="matrix(1,0,0,1,459.127,-90.8867)">
                <text x="-9.998px" y="0px" style="font-family:'LucidaGrande', 'Lucida Grande', sans-serif;font-weight:500;font-size:10px;">H25</text>
            </g>
            <g transform="matrix(1,0,0,1,196.849,-90.8867)">
                <text x="-9.998px" y="0px" style="font-family:'LucidaGrande', 'Lucida Grande', sans-serif;font-weight:500;font-size:10px;">H20</text>
            </g>
            <g transform="matrix(1,0,0,1,152.858,-90.8867)">
                <text x="-9.998px" y="0px" style="font-family:'LucidaGrande', 'Lucida Grande', sans-serif;font-weight:500;font-size:10px;">H19</text>
            </g>
            <g transform="matrix(1,0,0,1,108.846,-90.8843)">
                <text x="-9.998px" y="0px" style="font-family:'LucidaGrande', 'Lucida Grande', sans-serif;font-weight:500;font-size:10px;">H18</text>
            </g>
            <g transform="matrix(1,0,0,1,57.834,-90.7964)">
                <text x="-9.998px" y="0px" style="font-family:'LucidaGrande', 'Lucida Grande', sans-serif;font-weight:500;font-size:10px;">H17</text>
            </g>
            <g transform="matrix(1,0,0,1,6.89258,-90.8843)">
                <text x="-9.998px" y="0px" style="font-family:'LucidaGrande', 'Lucida Grande', sans-serif;font-weight:500;font-size:10px;">H16</text>
            </g>
            <g transform="matrix(1,0,0,1,-42.873,-90.8867)">
                <text x="-9.998px" y="0px" style="font-family:'LucidaGrande', 'Lucida Grande', sans-serif;font-weight:500;font-size:10px;">H15</text>
            </g>
            <g id="edge23">
                <path d="M477.17,-215.34C485.12,-207.6 494.63,-198.36 503.43,-189.81" style="fill:none;fill-rule:nonzero;stroke:rgb(128,128,128);stroke-width:2px;"/>
                <path d="M505.69,-192.49L510.42,-183.01L500.81,-187.47L505.69,-192.49Z" style="fill:rgb(128,128,128);fill-rule:nonzero;stroke:rgb(128,128,128);stroke-width:2px;"/>
            </g>
            <g id="edge21">
                <path d="M425.36,-287.34C429.96,-280.18 435.39,-271.73 440.53,-263.73" style="fill:none;fill-rule:nonzero;stroke:rgb(128,128,128);stroke-width:2px;"/>
                <path d="M443.39,-265.75L445.85,-255.45L437.5,-261.97L443.39,-265.75Z" style="fill:rgb(128,128,128);fill-rule:nonzero;stroke:rgb(128,128,128);stroke-width:2px;"/>
            </g>
        </g>
    </g>
</svg>
