<?xml version="1.0" encoding="UTF-8" standalone="no"?>
<!DOCTYPE svg PUBLIC "-//W3C//DTD SVG 1.1//EN"
 "http://www.w3.org/Graphics/SVG/1.1/DTD/svg11.dtd">
<!-- Generated by graphviz version 12.2.1 (20241206.2353)
 -->
<!-- Title: snakemake_dag Pages: 1 -->
<svg width="556pt" height="476pt"
 viewBox="0.00 0.00 556.00 476.00" xmlns="http://www.w3.org/2000/svg" xmlns:xlink="http://www.w3.org/1999/xlink">
<g id="graph0" class="graph" transform="scale(1 1) rotate(0) translate(4 472)">
<title>snakemake_dag</title>
<polygon fill="white" stroke="none" points="-4,4 -4,-472 552,-472 552,4 -4,4"/>
<!-- 0 -->
<g id="node1" class="node">
<title>0</title>
<path fill="none" stroke="#a7d856" stroke-width="2" d="M295,-36C295,-36 265,-36 265,-36 259,-36 253,-30 253,-24 253,-24 253,-12 253,-12 253,-6 259,0 265,0 265,0 295,0 295,0 301,0 307,-6 307,-12 307,-12 307,-24 307,-24 307,-30 301,-36 295,-36"/>
<text text-anchor="middle" x="280" y="-14.12" font-family="sans" font-size="10.00">all</text>
</g>
<!-- 1 -->
<g id="node2" class="node">
<title>1</title>
<path fill="none" stroke="#59d856" stroke-width="2" d="M295,-108C295,-108 265,-108 265,-108 259,-108 253,-102 253,-96 253,-96 253,-84 253,-84 253,-78 259,-72 265,-72 265,-72 295,-72 295,-72 301,-72 307,-78 307,-84 307,-84 307,-96 307,-96 307,-102 301,-108 295,-108"/>
<text text-anchor="middle" x="280" y="-86.12" font-family="sans" font-size="10.00">merge</text>
</g>
<!-- 1&#45;&gt;0 -->
<g id="edge1" class="edge">
<title>1&#45;&gt;0</title>
<path fill="none" stroke="grey" stroke-width="2" d="M280,-71.34C280,-64.75 280,-57.08 280,-49.67"/>
<polygon fill="grey" stroke="grey" stroke-width="2" points="283.5,-49.93 280,-39.93 276.5,-49.93 283.5,-49.93"/>
</g>
<!-- 2 -->
<g id="node3" class="node">
<title>2</title>
<path fill="none" stroke="#d8a456" stroke-width="2" d="M175,-180C175,-180 145,-180 145,-180 139,-180 133,-174 133,-168 133,-168 133,-156 133,-156 133,-150 139,-144 145,-144 145,-144 175,-144 175,-144 181,-144 187,-150 187,-156 187,-156 187,-168 187,-168 187,-174 181,-180 175,-180"/>
<text text-anchor="middle" x="160" y="-158.12" font-family="sans" font-size="10.00">H07</text>
</g>
<!-- 2&#45;&gt;1 -->
<g id="edge2" class="edge">
<title>2&#45;&gt;1</title>
<path fill="none" stroke="grey" stroke-width="2" d="M187.83,-144.76C203.73,-135.49 223.92,-123.71 241.34,-113.55"/>
<polygon fill="grey" stroke="grey" stroke-width="2" points="242.83,-116.73 249.7,-108.67 239.3,-110.69 242.83,-116.73"/>
</g>
<!-- 3 -->
<g id="node4" class="node">
<title>3</title>
<path fill="none" stroke="#d85656" stroke-width="2" d="M178.62,-252C178.62,-252 121.38,-252 121.38,-252 115.38,-252 109.38,-246 109.38,-240 109.38,-240 109.38,-228 109.38,-228 109.38,-222 115.38,-216 121.38,-216 121.38,-216 178.62,-216 178.62,-216 184.62,-216 190.62,-222 190.62,-228 190.62,-228 190.62,-240 190.62,-240 190.62,-246 184.62,-252 178.62,-252"/>
<text text-anchor="middle" x="150" y="-230.12" font-family="sans" font-size="10.00">make_07_infile</text>
</g>
<!-- 3&#45;&gt;2 -->
<g id="edge10" class="edge">
<title>3&#45;&gt;2</title>
<path fill="none" stroke="grey" stroke-width="2" d="M152.52,-215.34C153.46,-208.75 154.56,-201.08 155.62,-193.67"/>
<polygon fill="grey" stroke="grey" stroke-width="2" points="159.07,-194.29 157.01,-183.9 152.14,-193.3 159.07,-194.29"/>
</g>
<!-- 4 -->
<g id="node5" class="node">
<title>4</title>
<path fill="none" stroke="#d88d56" stroke-width="2" d="M188,-324C188,-324 158,-324 158,-324 152,-324 146,-318 146,-312 146,-312 146,-300 146,-300 146,-294 152,-288 158,-288 158,-288 188,-288 188,-288 194,-288 200,-294 200,-300 200,-300 200,-312 200,-312 200,-318 194,-324 188,-324"/>
<text text-anchor="middle" x="173" y="-302.12" font-family="sans" font-size="10.00">H04</text>
</g>
<!-- 4&#45;&gt;3 -->
<g id="edge12" class="edge">
<title>4&#45;&gt;3</title>
<path fill="none" stroke="grey" stroke-width="2" d="M167.2,-287.34C164.98,-280.59 162.39,-272.69 159.89,-265.11"/>
<polygon fill="grey" stroke="grey" stroke-width="2" points="163.27,-264.19 156.83,-255.78 156.62,-266.37 163.27,-264.19"/>
</g>
<!-- 5 -->
<g id="node6" class="node">
<title>5</title>
<path fill="none" stroke="#56d873" stroke-width="2" d="M230,-396C230,-396 200,-396 200,-396 194,-396 188,-390 188,-384 188,-384 188,-372 188,-372 188,-366 194,-360 200,-360 200,-360 230,-360 230,-360 236,-360 242,-366 242,-372 242,-372 242,-384 242,-384 242,-390 236,-396 230,-396"/>
<text text-anchor="middle" x="215" y="-374.12" font-family="sans" font-size="10.00">H01</text>
</g>
<!-- 5&#45;&gt;4 -->
<g id="edge13" class="edge">
<title>5&#45;&gt;4</title>
<path fill="none" stroke="grey" stroke-width="2" d="M204.4,-359.34C200.16,-352.26 195.15,-343.92 190.4,-336"/>
<polygon fill="grey" stroke="grey" stroke-width="2" points="193.44,-334.27 185.3,-327.5 187.44,-337.87 193.44,-334.27"/>
</g>
<!-- 7 -->
<g id="node8" class="node">
<title>7</title>
<path fill="none" stroke="#88d856" stroke-width="2" d="M87,-324C87,-324 57,-324 57,-324 51,-324 45,-318 45,-312 45,-312 45,-300 45,-300 45,-294 51,-288 57,-288 57,-288 87,-288 87,-288 93,-288 99,-294 99,-300 99,-300 99,-312 99,-312 99,-318 93,-324 87,-324"/>
<text text-anchor="middle" x="72" y="-302.12" font-family="sans" font-size="10.00">H05</text>
</g>
<!-- 5&#45;&gt;7 -->
<g id="edge15" class="edge">
<title>5&#45;&gt;7</title>
<path fill="none" stroke="grey" stroke-width="2" d="M187.09,-363.34C165.53,-352.79 135.43,-338.05 111.42,-326.3"/>
<polygon fill="grey" stroke="grey" stroke-width="2" points="113.08,-323.21 102.56,-321.96 110,-329.5 113.08,-323.21"/>
</g>
<!-- 11 -->
<g id="node12" class="node">
<title>11</title>
<path fill="none" stroke="#d6d856" stroke-width="2" d="M277.62,-252C277.62,-252 220.38,-252 220.38,-252 214.38,-252 208.38,-246 208.38,-240 208.38,-240 208.38,-228 208.38,-228 208.38,-222 214.38,-216 220.38,-216 220.38,-216 277.62,-216 277.62,-216 283.62,-216 289.62,-222 289.62,-228 289.62,-228 289.62,-240 289.62,-240 289.62,-246 283.62,-252 277.62,-252"/>
<text text-anchor="middle" x="249" y="-230.12" font-family="sans" font-size="10.00">make_10_infile</text>
</g>
<!-- 5&#45;&gt;11 -->
<g id="edge19" class="edge">
<title>5&#45;&gt;11</title>
<path fill="none" stroke="grey" stroke-width="2" d="M219.31,-359.02C224.95,-335.44 234.94,-293.73 241.76,-265.25"/>
<polygon fill="grey" stroke="grey" stroke-width="2" points="245.1,-266.32 244.02,-255.78 238.29,-264.69 245.1,-266.32"/>
</g>
<!-- 6 -->
<g id="node7" class="node">
<title>6</title>
<path fill="none" stroke="#70d856" stroke-width="2" d="M333,-468C333,-468 303,-468 303,-468 297,-468 291,-462 291,-456 291,-456 291,-444 291,-444 291,-438 297,-432 303,-432 303,-432 333,-432 333,-432 339,-432 345,-438 345,-444 345,-444 345,-456 345,-456 345,-462 339,-468 333,-468"/>
<text text-anchor="middle" x="318" y="-446.12" font-family="sans" font-size="10.00">H00</text>
</g>
<!-- 6&#45;&gt;5 -->
<g id="edge14" class="edge">
<title>6&#45;&gt;5</title>
<path fill="none" stroke="grey" stroke-width="2" d="M291.74,-431.15C279.64,-422.93 265.06,-413.02 251.87,-404.06"/>
<polygon fill="grey" stroke="grey" stroke-width="2" points="253.95,-401.24 243.71,-398.51 250.02,-407.03 253.95,-401.24"/>
</g>
<!-- 12 -->
<g id="node13" class="node">
<title>12</title>
<path fill="none" stroke="#56d8c1" stroke-width="2" d="M333,-324C333,-324 303,-324 303,-324 297,-324 291,-318 291,-312 291,-312 291,-300 291,-300 291,-294 297,-288 303,-288 303,-288 333,-288 333,-288 339,-288 345,-294 345,-300 345,-300 345,-312 345,-312 345,-318 339,-324 333,-324"/>
<text text-anchor="middle" x="318" y="-302.12" font-family="sans" font-size="10.00">H02</text>
</g>
<!-- 6&#45;&gt;12 -->
<g id="edge21" class="edge">
<title>6&#45;&gt;12</title>
<path fill="none" stroke="grey" stroke-width="2" d="M318,-431.02C318,-407.54 318,-366.11 318,-337.64"/>
<polygon fill="grey" stroke="grey" stroke-width="2" points="321.5,-337.87 318,-327.87 314.5,-337.87 321.5,-337.87"/>
</g>
<!-- 16 -->
<g id="node17" class="node">
<title>16</title>
<path fill="none" stroke="#56c1d8" stroke-width="2" d="M396,-396C396,-396 366,-396 366,-396 360,-396 354,-390 354,-384 354,-384 354,-372 354,-372 354,-366 360,-360 366,-360 366,-360 396,-360 396,-360 402,-360 408,-366 408,-372 408,-372 408,-384 408,-384 408,-390 402,-396 396,-396"/>
<text text-anchor="middle" x="381" y="-374.12" font-family="sans" font-size="10.00">H03</text>
</g>
<!-- 6&#45;&gt;16 -->
<g id="edge26" class="edge">
<title>6&#45;&gt;16</title>
<path fill="none" stroke="grey" stroke-width="2" d="M333.9,-431.34C340.71,-423.77 348.82,-414.75 356.38,-406.35"/>
<polygon fill="grey" stroke="grey" stroke-width="2" points="358.78,-408.93 362.86,-399.15 353.57,-404.24 358.78,-408.93"/>
</g>
<!-- 7&#45;&gt;3 -->
<g id="edge11" class="edge">
<title>7&#45;&gt;3</title>
<path fill="none" stroke="grey" stroke-width="2" d="M91.68,-287.34C100.39,-279.52 110.82,-270.16 120.43,-261.53"/>
<polygon fill="grey" stroke="grey" stroke-width="2" points="122.69,-264.21 127.8,-254.92 118.02,-259 122.69,-264.21"/>
</g>
<!-- 8 -->
<g id="node9" class="node">
<title>8</title>
<path fill="none" stroke="#56d8a2" stroke-width="2" d="M42,-180C42,-180 12,-180 12,-180 6,-180 0,-174 0,-168 0,-168 0,-156 0,-156 0,-150 6,-144 12,-144 12,-144 42,-144 42,-144 48,-144 54,-150 54,-156 54,-156 54,-168 54,-168 54,-174 48,-180 42,-180"/>
<text text-anchor="middle" x="27" y="-158.12" font-family="sans" font-size="10.00">H08</text>
</g>
<!-- 7&#45;&gt;8 -->
<g id="edge16" class="edge">
<title>7&#45;&gt;8</title>
<path fill="none" stroke="grey" stroke-width="2" d="M52.13,-287.42C42.93,-277.96 32.95,-265.47 28,-252 21.16,-233.37 20.93,-211.02 22.4,-193.39"/>
<polygon fill="grey" stroke="grey" stroke-width="2" points="25.85,-194.02 23.48,-183.69 18.89,-193.24 25.85,-194.02"/>
</g>
<!-- 9 -->
<g id="node10" class="node">
<title>9</title>
<path fill="none" stroke="#d8bc56" stroke-width="2" d="M79,-252C79,-252 49,-252 49,-252 43,-252 37,-246 37,-240 37,-240 37,-228 37,-228 37,-222 43,-216 49,-216 49,-216 79,-216 79,-216 85,-216 91,-222 91,-228 91,-228 91,-240 91,-240 91,-246 85,-252 79,-252"/>
<text text-anchor="middle" x="64" y="-230.12" font-family="sans" font-size="10.00">H09</text>
</g>
<!-- 7&#45;&gt;9 -->
<g id="edge17" class="edge">
<title>7&#45;&gt;9</title>
<path fill="none" stroke="grey" stroke-width="2" d="M69.98,-287.34C69.23,-280.75 68.35,-273.08 67.5,-265.67"/>
<polygon fill="grey" stroke="grey" stroke-width="2" points="71,-265.45 66.39,-255.91 64.05,-266.24 71,-265.45"/>
</g>
<!-- 8&#45;&gt;1 -->
<g id="edge7" class="edge">
<title>8&#45;&gt;1</title>
<path fill="none" stroke="grey" stroke-width="2" d="M54.86,-152.35C63.83,-149.62 73.82,-146.63 83,-144 137.11,-128.51 199.96,-111.83 239.84,-101.4"/>
<polygon fill="grey" stroke="grey" stroke-width="2" points="240.47,-104.86 249.26,-98.95 238.7,-98.08 240.47,-104.86"/>
</g>
<!-- 9&#45;&gt;1 -->
<g id="edge3" class="edge">
<title>9&#45;&gt;1</title>
<path fill="none" stroke="grey" stroke-width="2" d="M71.75,-215.06C81.27,-195.01 99.27,-162.9 124,-144 158.11,-117.93 205.84,-104.21 239.5,-97.32"/>
<polygon fill="grey" stroke="grey" stroke-width="2" points="239.95,-100.8 249.12,-95.49 238.64,-93.92 239.95,-100.8"/>
</g>
<!-- 10 -->
<g id="node11" class="node">
<title>10</title>
<path fill="none" stroke="#bed856" stroke-width="2" d="M259,-180C259,-180 229,-180 229,-180 223,-180 217,-174 217,-168 217,-168 217,-156 217,-156 217,-150 223,-144 229,-144 229,-144 259,-144 259,-144 265,-144 271,-150 271,-156 271,-156 271,-168 271,-168 271,-174 265,-180 259,-180"/>
<text text-anchor="middle" x="244" y="-158.12" font-family="sans" font-size="10.00">H10</text>
</g>
<!-- 10&#45;&gt;1 -->
<g id="edge5" class="edge">
<title>10&#45;&gt;1</title>
<path fill="none" stroke="grey" stroke-width="2" d="M253.08,-143.34C256.68,-136.34 260.91,-128.12 264.94,-120.28"/>
<polygon fill="grey" stroke="grey" stroke-width="2" points="267.95,-122.09 269.41,-111.59 261.72,-118.89 267.95,-122.09"/>
</g>
<!-- 11&#45;&gt;10 -->
<g id="edge18" class="edge">
<title>11&#45;&gt;10</title>
<path fill="none" stroke="grey" stroke-width="2" d="M247.74,-215.34C247.27,-208.75 246.72,-201.08 246.19,-193.67"/>
<polygon fill="grey" stroke="grey" stroke-width="2" points="249.7,-193.65 245.49,-183.92 242.72,-194.15 249.7,-193.65"/>
</g>
<!-- 12&#45;&gt;11 -->
<g id="edge20" class="edge">
<title>12&#45;&gt;11</title>
<path fill="none" stroke="grey" stroke-width="2" d="M300.59,-287.34C293.05,-279.69 284.05,-270.56 275.69,-262.08"/>
<polygon fill="grey" stroke="grey" stroke-width="2" points="278.28,-259.72 268.77,-255.06 273.3,-264.64 278.28,-259.72"/>
</g>
<!-- 14 -->
<g id="node15" class="node">
<title>14</title>
<path fill="none" stroke="#56d8d8" stroke-width="2" d="M415.62,-252C415.62,-252 358.38,-252 358.38,-252 352.38,-252 346.38,-246 346.38,-240 346.38,-240 346.38,-228 346.38,-228 346.38,-222 352.38,-216 358.38,-216 358.38,-216 415.62,-216 415.62,-216 421.62,-216 427.62,-222 427.62,-228 427.62,-228 427.62,-240 427.62,-240 427.62,-246 421.62,-252 415.62,-252"/>
<text text-anchor="middle" x="387" y="-230.12" font-family="sans" font-size="10.00">make_11_infile</text>
</g>
<!-- 12&#45;&gt;14 -->
<g id="edge23" class="edge">
<title>12&#45;&gt;14</title>
<path fill="none" stroke="grey" stroke-width="2" d="M335.41,-287.34C342.95,-279.69 351.95,-270.56 360.31,-262.08"/>
<polygon fill="grey" stroke="grey" stroke-width="2" points="362.7,-264.64 367.23,-255.06 357.72,-259.72 362.7,-264.64"/>
</g>
<!-- 17 -->
<g id="node18" class="node">
<title>17</title>
<path fill="none" stroke="#56d88a" stroke-width="2" d="M331,-180C331,-180 301,-180 301,-180 295,-180 289,-174 289,-168 289,-168 289,-156 289,-156 289,-150 295,-144 301,-144 301,-144 331,-144 331,-144 337,-144 343,-150 343,-156 343,-156 343,-168 343,-168 343,-174 337,-180 331,-180"/>
<text text-anchor="middle" x="316" y="-158.12" font-family="sans" font-size="10.00">H12</text>
</g>
<!-- 12&#45;&gt;17 -->
<g id="edge27" class="edge">
<title>12&#45;&gt;17</title>
<path fill="none" stroke="grey" stroke-width="2" d="M317.75,-287.02C317.42,-263.54 316.83,-222.11 316.43,-193.64"/>
<polygon fill="grey" stroke="grey" stroke-width="2" points="319.93,-193.81 316.29,-183.87 312.94,-193.91 319.93,-193.81"/>
</g>
<!-- 13 -->
<g id="node14" class="node">
<title>13</title>
<path fill="none" stroke="#5673d8" stroke-width="2" d="M403,-180C403,-180 373,-180 373,-180 367,-180 361,-174 361,-168 361,-168 361,-156 361,-156 361,-150 367,-144 373,-144 373,-144 403,-144 403,-144 409,-144 415,-150 415,-156 415,-156 415,-168 415,-168 415,-174 409,-180 403,-180"/>
<text text-anchor="middle" x="388" y="-158.12" font-family="sans" font-size="10.00">H11</text>
</g>
<!-- 13&#45;&gt;1 -->
<g id="edge9" class="edge">
<title>13&#45;&gt;1</title>
<path fill="none" stroke="grey" stroke-width="2" d="M360.47,-143.15C347.65,-134.84 332.18,-124.82 318.25,-115.79"/>
<polygon fill="grey" stroke="grey" stroke-width="2" points="320.32,-112.96 310.02,-110.46 316.51,-118.83 320.32,-112.96"/>
</g>
<!-- 14&#45;&gt;13 -->
<g id="edge22" class="edge">
<title>14&#45;&gt;13</title>
<path fill="none" stroke="grey" stroke-width="2" d="M387.25,-215.34C387.35,-208.75 387.46,-201.08 387.56,-193.67"/>
<polygon fill="grey" stroke="grey" stroke-width="2" points="391.06,-193.98 387.7,-183.93 384.06,-193.88 391.06,-193.98"/>
</g>
<!-- 15 -->
<g id="node16" class="node">
<title>15</title>
<path fill="none" stroke="#d86e56" stroke-width="2" d="M446,-324C446,-324 416,-324 416,-324 410,-324 404,-318 404,-312 404,-312 404,-300 404,-300 404,-294 410,-288 416,-288 416,-288 446,-288 446,-288 452,-288 458,-294 458,-300 458,-300 458,-312 458,-312 458,-318 452,-324 446,-324"/>
<text text-anchor="middle" x="431" y="-302.12" font-family="sans" font-size="10.00">H06</text>
</g>
<!-- 15&#45;&gt;14 -->
<g id="edge24" class="edge">
<title>15&#45;&gt;14</title>
<path fill="none" stroke="grey" stroke-width="2" d="M419.9,-287.34C415.4,-280.18 410.09,-271.73 405.06,-263.73"/>
<polygon fill="grey" stroke="grey" stroke-width="2" points="408.15,-262.07 399.86,-255.46 402.22,-265.79 408.15,-262.07"/>
</g>
<!-- 18 -->
<g id="node19" class="node">
<title>18</title>
<path fill="none" stroke="#568ad8" stroke-width="2" d="M488,-252C488,-252 458,-252 458,-252 452,-252 446,-246 446,-240 446,-240 446,-228 446,-228 446,-222 452,-216 458,-216 458,-216 488,-216 488,-216 494,-216 500,-222 500,-228 500,-228 500,-240 500,-240 500,-246 494,-252 488,-252"/>
<text text-anchor="middle" x="473" y="-230.12" font-family="sans" font-size="10.00">H13</text>
</g>
<!-- 15&#45;&gt;18 -->
<g id="edge28" class="edge">
<title>15&#45;&gt;18</title>
<path fill="none" stroke="grey" stroke-width="2" d="M441.6,-287.34C445.84,-280.26 450.85,-271.92 455.6,-264"/>
<polygon fill="grey" stroke="grey" stroke-width="2" points="458.56,-265.87 460.7,-255.5 452.56,-262.27 458.56,-265.87"/>
</g>
<!-- 19 -->
<g id="node20" class="node">
<title>19</title>
<path fill="none" stroke="#56a2d8" stroke-width="2" d="M536,-180C536,-180 506,-180 506,-180 500,-180 494,-174 494,-168 494,-168 494,-156 494,-156 494,-150 500,-144 506,-144 506,-144 536,-144 536,-144 542,-144 548,-150 548,-156 548,-156 548,-168 548,-168 548,-174 542,-180 536,-180"/>
<text text-anchor="middle" x="521" y="-158.12" font-family="sans" font-size="10.00">H14</text>
</g>
<!-- 15&#45;&gt;19 -->
<g id="edge29" class="edge">
<title>15&#45;&gt;19</title>
<path fill="none" stroke="grey" stroke-width="2" d="M458.63,-293.46C476,-284.71 497.29,-270.94 509,-252 519.72,-234.67 522.62,-211.84 522.89,-193.64"/>
<polygon fill="grey" stroke="grey" stroke-width="2" points="526.4,-193.76 522.73,-183.82 519.4,-193.88 526.4,-193.76"/>
</g>
<!-- 16&#45;&gt;15 -->
<g id="edge25" class="edge">
<title>16&#45;&gt;15</title>
<path fill="none" stroke="grey" stroke-width="2" d="M393.62,-359.34C398.79,-352.1 404.91,-343.53 410.68,-335.45"/>
<polygon fill="grey" stroke="grey" stroke-width="2" points="413.49,-337.54 416.45,-327.37 407.79,-333.47 413.49,-337.54"/>
</g>
<!-- 17&#45;&gt;1 -->
<g id="edge6" class="edge">
<title>17&#45;&gt;1</title>
<path fill="none" stroke="grey" stroke-width="2" d="M306.92,-143.34C303.32,-136.34 299.09,-128.12 295.06,-120.28"/>
<polygon fill="grey" stroke="grey" stroke-width="2" points="298.28,-118.89 290.59,-111.59 292.05,-122.09 298.28,-118.89"/>
</g>
<!-- 18&#45;&gt;1 -->
<g id="edge8" class="edge">
<title>18&#45;&gt;1</title>
<path fill="none" stroke="grey" stroke-width="2" d="M467.45,-215.17C460.38,-195.23 446.34,-163.2 424,-144 394.48,-118.62 351.74,-104.95 320.5,-97.88"/>
<polygon fill="grey" stroke="grey" stroke-width="2" points="321.35,-94.49 310.84,-95.87 319.92,-101.34 321.35,-94.49"/>
</g>
<!-- 19&#45;&gt;1 -->
<g id="edge4" class="edge">
<title>19&#45;&gt;1</title>
<path fill="none" stroke="grey" stroke-width="2" d="M493.12,-150.98C486.24,-148.6 478.88,-146.14 472,-144 420.05,-127.84 359.44,-111.52 320.43,-101.35"/>
<polygon fill="grey" stroke="grey" stroke-width="2" points="321.31,-97.96 310.76,-98.84 319.56,-104.74 321.31,-97.96"/>
</g>
</g>
</svg>
