<?xml version="1.0" encoding="UTF-8" standalone="no"?>
<!DOCTYPE svg PUBLIC "-//W3C//DTD SVG 1.1//EN"
 "http://www.w3.org/Graphics/SVG/1.1/DTD/svg11.dtd">
<!-- Generated by graphviz version 12.2.1 (20241206.2353)
 -->
<!-- Title: snakemake_dag Pages: 1 -->
<svg width="566pt" height="404pt"
 viewBox="0.00 0.00 566.00 404.00" xmlns="http://www.w3.org/2000/svg" xmlns:xlink="http://www.w3.org/1999/xlink">
<g id="graph0" class="graph" transform="scale(1 1) rotate(0) translate(4 400)">
<title>snakemake_dag</title>
<polygon fill="white" stroke="none" points="-4,4 -4,-400 562,-400 562,4 -4,4"/>
<!-- 0 -->
<g id="node1" class="node">
<title>0</title>
<path fill="none" stroke="#d85656" stroke-width="2" d="M294,-36C294,-36 264,-36 264,-36 258,-36 252,-30 252,-24 252,-24 252,-12 252,-12 252,-6 258,0 264,0 264,0 294,0 294,0 300,0 306,-6 306,-12 306,-12 306,-24 306,-24 306,-30 300,-36 294,-36"/>
<text text-anchor="middle" x="279" y="-14.12" font-family="sans" font-size="10.00">all</text>
</g>
<!-- 1 -->
<g id="node2" class="node">
<title>1</title>
<path fill="none" stroke="#56b1d8" stroke-width="2" d="M294,-108C294,-108 264,-108 264,-108 258,-108 252,-102 252,-96 252,-96 252,-84 252,-84 252,-78 258,-72 264,-72 264,-72 294,-72 294,-72 300,-72 306,-78 306,-84 306,-84 306,-96 306,-96 306,-102 300,-108 294,-108"/>
<text text-anchor="middle" x="279" y="-86.12" font-family="sans" font-size="10.00">merge</text>
</g>
<!-- 1&#45;&gt;0 -->
<g id="edge1" class="edge">
<title>1&#45;&gt;0</title>
<path fill="none" stroke="grey" stroke-width="2" d="M279,-71.34C279,-64.75 279,-57.08 279,-49.67"/>
<polygon fill="grey" stroke="grey" stroke-width="2" points="282.5,-49.93 279,-39.93 275.5,-49.93 282.5,-49.93"/>
</g>
<!-- 2 -->
<g id="node3" class="node">
<title>2</title>
<path fill="none" stroke="#5673d8" stroke-width="2" d="M42,-180C42,-180 12,-180 12,-180 6,-180 0,-174 0,-168 0,-168 0,-156 0,-156 0,-150 6,-144 12,-144 12,-144 42,-144 42,-144 48,-144 54,-150 54,-156 54,-156 54,-168 54,-168 54,-174 48,-180 42,-180"/>
<text text-anchor="middle" x="27" y="-158.12" font-family="sans" font-size="10.00">H07</text>
</g>
<!-- 2&#45;&gt;1 -->
<g id="edge9" class="edge">
<title>2&#45;&gt;1</title>
<path fill="none" stroke="grey" stroke-width="2" d="M54.68,-147.26C57.46,-146.08 60.26,-144.97 63,-144 122.69,-122.82 194.57,-107.03 238.51,-98.41"/>
<polygon fill="grey" stroke="grey" stroke-width="2" points="239.07,-101.86 248.23,-96.54 237.75,-94.99 239.07,-101.86"/>
</g>
<!-- 3 -->
<g id="node4" class="node">
<title>3</title>
<path fill="none" stroke="#56d863" stroke-width="2" d="M60,-252C60,-252 30,-252 30,-252 24,-252 18,-246 18,-240 18,-240 18,-228 18,-228 18,-222 24,-216 30,-216 30,-216 60,-216 60,-216 66,-216 72,-222 72,-228 72,-228 72,-240 72,-240 72,-246 66,-252 60,-252"/>
<text text-anchor="middle" x="45" y="-230.12" font-family="sans" font-size="10.00">H04</text>
</g>
<!-- 3&#45;&gt;2 -->
<g id="edge10" class="edge">
<title>3&#45;&gt;2</title>
<path fill="none" stroke="grey" stroke-width="2" d="M40.46,-215.34C38.74,-208.67 36.74,-200.89 34.81,-193.39"/>
<polygon fill="grey" stroke="grey" stroke-width="2" points="38.24,-192.65 32.36,-183.83 31.46,-194.39 38.24,-192.65"/>
</g>
<!-- 4 -->
<g id="node5" class="node">
<title>4</title>
<path fill="none" stroke="#56d882" stroke-width="2" d="M168,-324C168,-324 138,-324 138,-324 132,-324 126,-318 126,-312 126,-312 126,-300 126,-300 126,-294 132,-288 138,-288 138,-288 168,-288 168,-288 174,-288 180,-294 180,-300 180,-300 180,-312 180,-312 180,-318 174,-324 168,-324"/>
<text text-anchor="middle" x="153" y="-302.12" font-family="sans" font-size="10.00">H01</text>
</g>
<!-- 4&#45;&gt;3 -->
<g id="edge11" class="edge">
<title>4&#45;&gt;3</title>
<path fill="none" stroke="grey" stroke-width="2" d="M125.47,-287.15C112.65,-278.84 97.18,-268.82 83.25,-259.79"/>
<polygon fill="grey" stroke="grey" stroke-width="2" points="85.32,-256.96 75.02,-254.46 81.51,-262.83 85.32,-256.96"/>
</g>
<!-- 7 -->
<g id="node8" class="node">
<title>7</title>
<path fill="none" stroke="#56d8a2" stroke-width="2" d="M168,-252C168,-252 138,-252 138,-252 132,-252 126,-246 126,-240 126,-240 126,-228 126,-228 126,-222 132,-216 138,-216 138,-216 168,-216 168,-216 174,-216 180,-222 180,-228 180,-228 180,-240 180,-240 180,-246 174,-252 168,-252"/>
<text text-anchor="middle" x="153" y="-230.12" font-family="sans" font-size="10.00">H05</text>
</g>
<!-- 4&#45;&gt;7 -->
<g id="edge14" class="edge">
<title>4&#45;&gt;7</title>
<path fill="none" stroke="grey" stroke-width="2" d="M153,-287.34C153,-280.75 153,-273.08 153,-265.67"/>
<polygon fill="grey" stroke="grey" stroke-width="2" points="156.5,-265.93 153,-255.93 149.5,-265.93 156.5,-265.93"/>
</g>
<!-- 5 -->
<g id="node6" class="node">
<title>5</title>
<path fill="none" stroke="#d87556" stroke-width="2" d="M330,-396C330,-396 300,-396 300,-396 294,-396 288,-390 288,-384 288,-384 288,-372 288,-372 288,-366 294,-360 300,-360 300,-360 330,-360 330,-360 336,-360 342,-366 342,-372 342,-372 342,-384 342,-384 342,-390 336,-396 330,-396"/>
<text text-anchor="middle" x="315" y="-374.12" font-family="sans" font-size="10.00">H00</text>
</g>
<!-- 5&#45;&gt;4 -->
<g id="edge12" class="edge">
<title>5&#45;&gt;4</title>
<path fill="none" stroke="grey" stroke-width="2" d="M287.15,-364.97C261.11,-353.71 221.94,-336.79 192.64,-324.13"/>
<polygon fill="grey" stroke="grey" stroke-width="2" points="194.1,-320.95 183.53,-320.19 191.33,-327.37 194.1,-320.95"/>
</g>
<!-- 10 -->
<g id="node11" class="node">
<title>10</title>
<path fill="none" stroke="#68d856" stroke-width="2" d="M330,-252C330,-252 300,-252 300,-252 294,-252 288,-246 288,-240 288,-240 288,-228 288,-228 288,-222 294,-216 300,-216 300,-216 330,-216 330,-216 336,-216 342,-222 342,-228 342,-228 342,-240 342,-240 342,-246 336,-252 330,-252"/>
<text text-anchor="middle" x="315" y="-230.12" font-family="sans" font-size="10.00">H02</text>
</g>
<!-- 5&#45;&gt;10 -->
<g id="edge17" class="edge">
<title>5&#45;&gt;10</title>
<path fill="none" stroke="grey" stroke-width="2" d="M315,-359.02C315,-335.54 315,-294.11 315,-265.64"/>
<polygon fill="grey" stroke="grey" stroke-width="2" points="318.5,-265.87 315,-255.87 311.5,-265.87 318.5,-265.87"/>
</g>
<!-- 15 -->
<g id="node16" class="node">
<title>15</title>
<path fill="none" stroke="#88d856" stroke-width="2" d="M429,-324C429,-324 399,-324 399,-324 393,-324 387,-318 387,-312 387,-312 387,-300 387,-300 387,-294 393,-288 399,-288 399,-288 429,-288 429,-288 435,-288 441,-294 441,-300 441,-300 441,-312 441,-312 441,-318 435,-324 429,-324"/>
<text text-anchor="middle" x="414" y="-302.12" font-family="sans" font-size="10.00">H03</text>
</g>
<!-- 5&#45;&gt;15 -->
<g id="edge22" class="edge">
<title>5&#45;&gt;15</title>
<path fill="none" stroke="grey" stroke-width="2" d="M340.24,-359.15C351.76,-351.01 365.61,-341.22 378.18,-332.33"/>
<polygon fill="grey" stroke="grey" stroke-width="2" points="380.19,-335.19 386.34,-326.56 376.15,-329.48 380.19,-335.19"/>
</g>
<!-- 6 -->
<g id="node7" class="node">
<title>6</title>
<path fill="none" stroke="#bed856" stroke-width="2" d="M114,-180C114,-180 84,-180 84,-180 78,-180 72,-174 72,-168 72,-168 72,-156 72,-156 72,-150 78,-144 84,-144 84,-144 114,-144 114,-144 120,-144 126,-150 126,-156 126,-156 126,-168 126,-168 126,-174 120,-180 114,-180"/>
<text text-anchor="middle" x="99" y="-158.12" font-family="sans" font-size="10.00">H08</text>
</g>
<!-- 6&#45;&gt;1 -->
<g id="edge5" class="edge">
<title>6&#45;&gt;1</title>
<path fill="none" stroke="grey" stroke-width="2" d="M126.8,-147.58C129.55,-146.33 132.32,-145.12 135,-144 169.67,-129.47 209.87,-114.85 238.98,-104.66"/>
<polygon fill="grey" stroke="grey" stroke-width="2" points="239.96,-108.03 248.25,-101.44 237.66,-101.41 239.96,-108.03"/>
</g>
<!-- 7&#45;&gt;6 -->
<g id="edge13" class="edge">
<title>7&#45;&gt;6</title>
<path fill="none" stroke="grey" stroke-width="2" d="M139.37,-215.34C133.73,-208.01 127.03,-199.34 120.74,-191.18"/>
<polygon fill="grey" stroke="grey" stroke-width="2" points="123.54,-189.08 114.66,-183.3 118,-193.35 123.54,-189.08"/>
</g>
<!-- 8 -->
<g id="node9" class="node">
<title>8</title>
<path fill="none" stroke="#d8d356" stroke-width="2" d="M186,-180C186,-180 156,-180 156,-180 150,-180 144,-174 144,-168 144,-168 144,-156 144,-156 144,-150 150,-144 156,-144 156,-144 186,-144 186,-144 192,-144 198,-150 198,-156 198,-156 198,-168 198,-168 198,-174 192,-180 186,-180"/>
<text text-anchor="middle" x="171" y="-158.12" font-family="sans" font-size="10.00">H09</text>
</g>
<!-- 7&#45;&gt;8 -->
<g id="edge15" class="edge">
<title>7&#45;&gt;8</title>
<path fill="none" stroke="grey" stroke-width="2" d="M157.54,-215.34C159.26,-208.67 161.26,-200.89 163.19,-193.39"/>
<polygon fill="grey" stroke="grey" stroke-width="2" points="166.54,-194.39 165.64,-183.83 159.76,-192.65 166.54,-194.39"/>
</g>
<!-- 8&#45;&gt;1 -->
<g id="edge4" class="edge">
<title>8&#45;&gt;1</title>
<path fill="none" stroke="grey" stroke-width="2" d="M198.53,-143.15C211.35,-134.84 226.82,-124.82 240.75,-115.79"/>
<polygon fill="grey" stroke="grey" stroke-width="2" points="242.49,-118.83 248.98,-110.46 238.68,-112.96 242.49,-118.83"/>
</g>
<!-- 9 -->
<g id="node10" class="node">
<title>9</title>
<path fill="none" stroke="#5692d8" stroke-width="2" d="M258,-180C258,-180 228,-180 228,-180 222,-180 216,-174 216,-168 216,-168 216,-156 216,-156 216,-150 222,-144 228,-144 228,-144 258,-144 258,-144 264,-144 270,-150 270,-156 270,-156 270,-168 270,-168 270,-174 264,-180 258,-180"/>
<text text-anchor="middle" x="243" y="-158.12" font-family="sans" font-size="10.00">H10</text>
</g>
<!-- 9&#45;&gt;1 -->
<g id="edge8" class="edge">
<title>9&#45;&gt;1</title>
<path fill="none" stroke="grey" stroke-width="2" d="M252.08,-143.34C255.68,-136.34 259.91,-128.12 263.94,-120.28"/>
<polygon fill="grey" stroke="grey" stroke-width="2" points="266.95,-122.09 268.41,-111.59 260.72,-118.89 266.95,-122.09"/>
</g>
<!-- 10&#45;&gt;9 -->
<g id="edge16" class="edge">
<title>10&#45;&gt;9</title>
<path fill="none" stroke="grey" stroke-width="2" d="M296.83,-215.34C288.88,-207.6 279.37,-198.36 270.57,-189.81"/>
<polygon fill="grey" stroke="grey" stroke-width="2" points="273.19,-187.47 263.58,-183.01 268.31,-192.49 273.19,-187.47"/>
</g>
<!-- 11 -->
<g id="node12" class="node">
<title>11</title>
<path fill="none" stroke="#56d8c1" stroke-width="2" d="M330,-180C330,-180 300,-180 300,-180 294,-180 288,-174 288,-168 288,-168 288,-156 288,-156 288,-150 294,-144 300,-144 300,-144 330,-144 330,-144 336,-144 342,-150 342,-156 342,-156 342,-168 342,-168 342,-174 336,-180 330,-180"/>
<text text-anchor="middle" x="315" y="-158.12" font-family="sans" font-size="10.00">H11</text>
</g>
<!-- 10&#45;&gt;11 -->
<g id="edge18" class="edge">
<title>10&#45;&gt;11</title>
<path fill="none" stroke="grey" stroke-width="2" d="M315,-215.34C315,-208.75 315,-201.08 315,-193.67"/>
<polygon fill="grey" stroke="grey" stroke-width="2" points="318.5,-193.93 315,-183.93 311.5,-193.93 318.5,-193.93"/>
</g>
<!-- 12 -->
<g id="node13" class="node">
<title>12</title>
<path fill="none" stroke="#d89556" stroke-width="2" d="M402,-180C402,-180 372,-180 372,-180 366,-180 360,-174 360,-168 360,-168 360,-156 360,-156 360,-150 366,-144 372,-144 372,-144 402,-144 402,-144 408,-144 414,-150 414,-156 414,-156 414,-168 414,-168 414,-174 408,-180 402,-180"/>
<text text-anchor="middle" x="387" y="-158.12" font-family="sans" font-size="10.00">H12</text>
</g>
<!-- 10&#45;&gt;12 -->
<g id="edge19" class="edge">
<title>10&#45;&gt;12</title>
<path fill="none" stroke="grey" stroke-width="2" d="M333.17,-215.34C341.12,-207.6 350.63,-198.36 359.43,-189.81"/>
<polygon fill="grey" stroke="grey" stroke-width="2" points="361.69,-192.49 366.42,-183.01 356.81,-187.47 361.69,-192.49"/>
</g>
<!-- 11&#45;&gt;1 -->
<g id="edge6" class="edge">
<title>11&#45;&gt;1</title>
<path fill="none" stroke="grey" stroke-width="2" d="M305.92,-143.34C302.32,-136.34 298.09,-128.12 294.06,-120.28"/>
<polygon fill="grey" stroke="grey" stroke-width="2" points="297.28,-118.89 289.59,-111.59 291.05,-122.09 297.28,-118.89"/>
</g>
<!-- 12&#45;&gt;1 -->
<g id="edge2" class="edge">
<title>12&#45;&gt;1</title>
<path fill="none" stroke="grey" stroke-width="2" d="M359.47,-143.15C346.65,-134.84 331.18,-124.82 317.25,-115.79"/>
<polygon fill="grey" stroke="grey" stroke-width="2" points="319.32,-112.96 309.02,-110.46 315.51,-118.83 319.32,-112.96"/>
</g>
<!-- 13 -->
<g id="node14" class="node">
<title>13</title>
<path fill="none" stroke="#d8b456" stroke-width="2" d="M474,-180C474,-180 444,-180 444,-180 438,-180 432,-174 432,-168 432,-168 432,-156 432,-156 432,-150 438,-144 444,-144 444,-144 474,-144 474,-144 480,-144 486,-150 486,-156 486,-156 486,-168 486,-168 486,-174 480,-180 474,-180"/>
<text text-anchor="middle" x="459" y="-158.12" font-family="sans" font-size="10.00">H13</text>
</g>
<!-- 13&#45;&gt;1 -->
<g id="edge3" class="edge">
<title>13&#45;&gt;1</title>
<path fill="none" stroke="grey" stroke-width="2" d="M431.2,-147.58C428.45,-146.33 425.68,-145.12 423,-144 388.33,-129.47 348.13,-114.85 319.02,-104.66"/>
<polygon fill="grey" stroke="grey" stroke-width="2" points="320.34,-101.41 309.75,-101.44 318.04,-108.03 320.34,-101.41"/>
</g>
<!-- 14 -->
<g id="node15" class="node">
<title>14</title>
<path fill="none" stroke="#9fd856" stroke-width="2" d="M474,-252C474,-252 444,-252 444,-252 438,-252 432,-246 432,-240 432,-240 432,-228 432,-228 432,-222 438,-216 444,-216 444,-216 474,-216 474,-216 480,-216 486,-222 486,-228 486,-228 486,-240 486,-240 486,-246 480,-252 474,-252"/>
<text text-anchor="middle" x="459" y="-230.12" font-family="sans" font-size="10.00">H06</text>
</g>
<!-- 14&#45;&gt;13 -->
<g id="edge20" class="edge">
<title>14&#45;&gt;13</title>
<path fill="none" stroke="grey" stroke-width="2" d="M459,-215.34C459,-208.75 459,-201.08 459,-193.67"/>
<polygon fill="grey" stroke="grey" stroke-width="2" points="462.5,-193.93 459,-183.93 455.5,-193.93 462.5,-193.93"/>
</g>
<!-- 16 -->
<g id="node17" class="node">
<title>16</title>
<path fill="none" stroke="#56d0d8" stroke-width="2" d="M546,-180C546,-180 516,-180 516,-180 510,-180 504,-174 504,-168 504,-168 504,-156 504,-156 504,-150 510,-144 516,-144 516,-144 546,-144 546,-144 552,-144 558,-150 558,-156 558,-156 558,-168 558,-168 558,-174 552,-180 546,-180"/>
<text text-anchor="middle" x="531" y="-158.12" font-family="sans" font-size="10.00">H14</text>
</g>
<!-- 14&#45;&gt;16 -->
<g id="edge23" class="edge">
<title>14&#45;&gt;16</title>
<path fill="none" stroke="grey" stroke-width="2" d="M477.17,-215.34C485.12,-207.6 494.63,-198.36 503.43,-189.81"/>
<polygon fill="grey" stroke="grey" stroke-width="2" points="505.69,-192.49 510.42,-183.01 500.81,-187.47 505.69,-192.49"/>
</g>
<!-- 15&#45;&gt;14 -->
<g id="edge21" class="edge">
<title>15&#45;&gt;14</title>
<path fill="none" stroke="grey" stroke-width="2" d="M425.36,-287.34C429.96,-280.18 435.39,-271.73 440.53,-263.73"/>
<polygon fill="grey" stroke="grey" stroke-width="2" points="443.39,-265.75 445.85,-255.45 437.5,-261.97 443.39,-265.75"/>
</g>
<!-- 16&#45;&gt;1 -->
<g id="edge7" class="edge">
<title>16&#45;&gt;1</title>
<path fill="none" stroke="grey" stroke-width="2" d="M503.32,-147.26C500.54,-146.08 497.74,-144.97 495,-144 435.31,-122.82 363.43,-107.03 319.49,-98.41"/>
<polygon fill="grey" stroke="grey" stroke-width="2" points="320.25,-94.99 309.77,-96.54 318.93,-101.86 320.25,-94.99"/>
</g>
</g>
</svg>
